<svg width="36" height="37" viewBox="0 0 36 37" fill="none" xmlns="http://www.w3.org/2000/svg">
<path d="M32.7863 2.55713H3.21491C2.50375 2.55713 1.9292 3.13168 1.9292 3.84284V33.4143C1.9292 34.1254 2.50375 34.7 3.21491 34.7H32.7863C33.4975 34.7 34.0721 34.1254 34.0721 33.4143V3.84284C34.0721 3.13168 33.4975 2.55713 32.7863 2.55713ZM31.5006 32.1286H24.1038V22.2527H28.2823L28.9091 17.4031H24.1038V14.3053C24.1038 12.8991 24.4935 11.9428 26.5064 11.9428H29.0738V7.60356C28.6279 7.54329 27.1051 7.4107 25.3292 7.4107C21.6247 7.4107 19.0895 9.67275 19.0895 13.8232V17.3991H14.9029V22.2486H19.0935V32.1286H4.50063V5.12856H31.5006V32.1286Z" fill="white"/>
</svg>
