<svg width="36" height="37" viewBox="0 0 36 37" fill="none" xmlns="http://www.w3.org/2000/svg">
<path d="M32.8254 15.8372H18.3089V21.8037H26.6017C26.2441 23.7322 25.1593 25.3635 23.5241 26.4564C22.1419 27.3805 20.3781 27.9269 18.3049 27.9269C14.291 27.9269 10.8959 25.2148 9.68253 21.5706C9.37718 20.6465 9.20039 19.6581 9.20039 18.6416C9.20039 17.6251 9.37718 16.6367 9.68253 15.7126C10.8999 12.0724 14.295 9.36037 18.3089 9.36037C20.5709 9.36037 22.5999 10.1398 24.1991 11.6666L28.6187 7.24296C25.9468 4.75188 22.4633 3.2251 18.3089 3.2251C12.2861 3.2251 7.07494 6.68045 4.53968 11.7188C3.49503 13.8001 2.90039 16.1546 2.90039 18.6456C2.90039 21.1367 3.49503 23.4872 4.53968 25.5684C7.07494 30.6068 12.2861 34.0622 18.3089 34.0622C22.4714 34.0622 25.9589 32.68 28.5062 30.3255C31.4191 27.6416 33.1026 23.688 33.1026 18.9912C33.1026 17.8983 33.0062 16.8497 32.8254 15.8372Z" fill="white"/>
</svg>
