<svg width="36" height="37" viewBox="0 0 36 37" fill="none" xmlns="http://www.w3.org/2000/svg">
<path d="M17.9989 10.3861C13.4387 10.3861 9.75831 14.0665 9.75831 18.6267C9.75831 23.187 13.4387 26.8674 17.9989 26.8674C22.5592 26.8674 26.2396 23.187 26.2396 18.6267C26.2396 14.0665 22.5592 10.3861 17.9989 10.3861ZM17.9989 23.9825C15.0498 23.9825 12.6431 21.5758 12.6431 18.6267C12.6431 15.6776 15.0498 13.2709 17.9989 13.2709C20.948 13.2709 23.3547 15.6776 23.3547 18.6267C23.3547 21.5758 20.948 23.9825 17.9989 23.9825ZM26.5771 8.12807C25.5123 8.12807 24.6525 8.98789 24.6525 10.0526C24.6525 11.1174 25.5123 11.9772 26.5771 11.9772C27.6418 11.9772 28.5016 11.1214 28.5016 10.0526C28.5019 9.7998 28.4524 9.5494 28.3558 9.31575C28.2592 9.08211 28.1174 8.86983 27.9386 8.69105C27.7599 8.51228 27.5476 8.37053 27.3139 8.27392C27.0803 8.17732 26.8299 8.12775 26.5771 8.12807ZM34.0623 18.6267C34.0623 16.4089 34.0824 14.2111 33.9579 11.9973C33.8333 9.42584 33.2467 7.1437 31.3664 5.26334C29.482 3.37896 27.2038 2.79637 24.6324 2.67182C22.4146 2.54727 20.2168 2.56736 18.003 2.56736C15.7851 2.56736 13.5873 2.54727 11.3735 2.67182C8.80206 2.79637 6.51992 3.38298 4.63956 5.26334C2.75519 7.14771 2.1726 9.42584 2.04804 11.9973C1.92349 14.2151 1.94358 16.4129 1.94358 18.6267C1.94358 20.8406 1.92349 23.0424 2.04804 25.2562C2.1726 27.8276 2.7592 30.1098 4.63956 31.9901C6.52394 33.8745 8.80206 34.4571 11.3735 34.5816C13.5913 34.7062 15.7891 34.6861 18.003 34.6861C20.2208 34.6861 22.4186 34.7062 24.6324 34.5816C27.2038 34.4571 29.486 33.8705 31.3664 31.9901C33.2507 30.1057 33.8333 27.8276 33.9579 25.2562C34.0864 23.0424 34.0623 20.8446 34.0623 18.6267ZM30.5266 28.1008C30.2333 28.8321 29.8797 29.3785 29.3132 29.941C28.7467 30.5075 28.2043 30.8611 27.473 31.1544C25.3597 31.9941 20.3413 31.8053 17.9989 31.8053C15.6565 31.8053 10.6342 31.9941 8.52081 31.1584C7.78956 30.8651 7.24313 30.5116 6.68063 29.945C6.11411 29.3785 5.76054 28.8361 5.46724 28.1049C4.63153 25.9874 4.82036 20.9691 4.82036 18.6267C4.82036 16.2843 4.63153 11.262 5.46724 9.14861C5.76054 8.41736 6.11411 7.87093 6.68063 7.30843C7.24715 6.74593 7.78956 6.38834 8.52081 6.09504C10.6342 5.25932 15.6565 5.44816 17.9989 5.44816C20.3413 5.44816 25.3637 5.25932 27.4771 6.09504C28.2083 6.38834 28.7547 6.74191 29.3172 7.30843C29.8838 7.87495 30.2373 8.41736 30.5306 9.14861C31.3664 11.262 31.1775 16.2843 31.1775 18.6267C31.1775 20.9691 31.3664 25.9874 30.5266 28.1008Z" fill="white"/>
</svg>
