<svg width="48" height="49" viewBox="0 0 48 49" fill="none" xmlns="http://www.w3.org/2000/svg">
<path d="M12 30.6355L23.3118 26.3936C23.7561 26.227 24.2451 26.2237 24.6915 26.3844L36.5 30.6355M8.50499 11.1088C10.6499 11.3998 13.8854 11.6105 16.1206 10.7188C18.6592 9.70608 21.2816 8.03181 22.7697 7.0116C23.5073 6.5059 24.4927 6.5059 25.2303 7.0116C26.7184 8.03181 29.3408 9.70608 31.8794 10.7188C34.1146 11.6105 37.3501 11.3998 39.495 11.1088C40.6884 10.947 41.8301 11.7773 41.8993 12.9796C42.0195 15.0693 42.1004 18.1869 41.7286 20.4688C39.5103 34.0844 27.7574 40.3987 24.718 41.8187C24.2577 42.0338 23.7423 42.0338 23.282 41.8187C20.2426 40.3987 8.4897 34.0844 6.27139 20.4688C5.89961 18.1869 5.98055 15.0693 6.10075 12.9796C6.16991 11.7773 7.31158 10.947 8.50499 11.1088Z" stroke="#141517" stroke-width="2" stroke-linecap="round"/>
</svg>
