<svg width="48" height="49" viewBox="0 0 48 49" fill="none" xmlns="http://www.w3.org/2000/svg">
<path d="M20 21.6323C20 22.7369 19.1046 23.6323 18 23.6323C16.8954 23.6323 16 22.7369 16 21.6323C16 20.5278 16.8954 19.6323 18 19.6323C19.1046 19.6323 20 20.5278 20 21.6323Z" fill="#141517"/>
<path d="M32 21.6323C32 22.7369 31.1046 23.6323 30 23.6323C28.8954 23.6323 28 22.7369 28 21.6323C28 20.5278 28.8954 19.6323 30 19.6323C31.1046 19.6323 32 20.5278 32 21.6323Z" fill="#141517"/>
<path d="M18.7593 28.9815C18.3998 28.5622 17.7685 28.5136 17.3492 28.8731C16.9299 29.2325 16.8813 29.8638 17.2407 30.2831C20.7937 34.4282 27.2063 34.4282 30.7593 30.2831C31.1187 29.8638 31.0701 29.2325 30.6508 28.8731C30.2315 28.5136 29.6002 28.5622 29.2407 28.9815C26.486 32.1954 21.514 32.1954 18.7593 28.9815Z" fill="#141517"/>
<path fill-rule="evenodd" clip-rule="evenodd" d="M24 42.6323C33.9411 42.6323 42 34.5735 42 24.6323C42 14.6912 33.9411 6.63232 24 6.63232C14.0589 6.63232 6 14.6912 6 24.6323C6 34.5735 14.0589 42.6323 24 42.6323ZM24 40.6323C32.8366 40.6323 40 33.4689 40 24.6323C40 15.7958 32.8366 8.63232 24 8.63232C15.1634 8.63232 8 15.7958 8 24.6323C8 33.4689 15.1634 40.6323 24 40.6323Z" fill="#141517"/>
</svg>
