<svg width="182" height="38" viewBox="0 0 182 38" fill="none" xmlns="http://www.w3.org/2000/svg">
<path fill-rule="evenodd" clip-rule="evenodd" d="M4.63628 6.75C4.63628 6.61193 4.7482 6.5 4.88628 6.5H18.2726C20.783 6.5 22.8181 8.53507 22.8181 11.0455V12.2163C22.8181 12.3888 22.9889 12.5097 23.1543 12.4607C23.7682 12.2792 24.4181 12.1818 25.0908 12.1818C28.8564 12.1818 31.909 15.2344 31.909 19C31.909 22.7656 28.8564 25.8182 25.0908 25.8182C24.4181 25.8182 23.7682 25.7208 23.1543 25.5393C22.9889 25.4903 22.8181 25.6112 22.8181 25.7837V26.7045C22.8181 26.8426 22.7062 26.9545 22.5681 26.9545H18.2726V11.2955C18.2726 11.1574 18.1607 11.0455 18.0226 11.0455H4.63628V6.75ZM22.8181 21.4293C22.8181 21.5004 22.8481 21.5685 22.9026 21.6142C23.4947 22.1104 24.2579 22.4091 25.0908 22.4091C26.9736 22.4091 28.4999 20.8828 28.4999 19C28.4999 17.1172 26.9736 15.5909 25.0908 15.5909C24.2579 15.5909 23.4947 15.8896 22.9026 16.3858C22.8481 16.4315 22.8181 16.4996 22.8181 16.5707V21.4293Z" fill="#5E832D"/>
<path d="M4.63628 11.0455V24.6818C4.63628 25.937 5.65381 26.9545 6.909 26.9545H18.2726V31.25C18.2726 31.3881 18.1607 31.5 18.0226 31.5H5.77264C2.63466 31.5 0.0908203 28.9562 0.0908203 25.8182V11.2955C0.0908203 11.1574 0.202749 11.0455 0.34082 11.0455H4.63628Z" fill="#5E832D"/>
<path d="M39.0369 28V24.76L47.6049 13.456V14.68H39.0369V11.08H51.8289V14.32L43.2369 25.624V24.4H52.1889V28H39.0369ZM60.2625 28.264C58.0545 28.264 56.3345 27.696 55.1025 26.56C53.8865 25.424 53.2785 23.864 53.2785 21.88C53.2785 20.648 53.5345 19.552 54.0465 18.592C54.5585 17.632 55.2785 16.888 56.2065 16.36C57.1345 15.816 58.2225 15.544 59.4705 15.544C60.7025 15.544 61.7265 15.816 62.5425 16.36C63.3745 16.888 63.9985 17.624 64.4145 18.568C64.8305 19.496 65.0385 20.576 65.0385 21.808V22.72H56.8545V20.704H61.8945L61.4865 21.04C61.4865 20.128 61.3105 19.456 60.9585 19.024C60.6225 18.576 60.1425 18.352 59.5185 18.352C58.7985 18.352 58.2465 18.624 57.8625 19.168C57.4945 19.696 57.3105 20.496 57.3105 21.568V22C57.3105 23.072 57.5745 23.856 58.1025 24.352C58.6305 24.848 59.3905 25.096 60.3825 25.096C61.0225 25.096 61.6225 25.024 62.1825 24.88C62.7585 24.736 63.3025 24.504 63.8145 24.184L64.9185 26.968C64.3105 27.384 63.6065 27.704 62.8065 27.928C62.0065 28.152 61.1585 28.264 60.2625 28.264ZM67.0727 28V19.12C67.0727 18.576 67.0567 18.024 67.0247 17.464C66.9927 16.904 66.9447 16.352 66.8807 15.808H71.0087L71.2487 17.92H70.9847C71.3847 17.152 71.9527 16.568 72.6887 16.168C73.4247 15.752 74.2567 15.544 75.1847 15.544C76.6087 15.544 77.6727 15.968 78.3767 16.816C79.0967 17.648 79.4567 18.952 79.4567 20.728V28H75.1847V20.92C75.1847 20.136 75.0487 19.592 74.7767 19.288C74.5047 18.968 74.1127 18.808 73.6007 18.808C72.9287 18.808 72.3847 19.032 71.9687 19.48C71.5527 19.912 71.3447 20.488 71.3447 21.208V28H67.0727ZM82.2658 28V11.08H86.7058V24.328H93.9538V28H82.2658ZM102.216 28.264C100.008 28.264 98.2876 27.696 97.0556 26.56C95.8396 25.424 95.2316 23.864 95.2316 21.88C95.2316 20.648 95.4876 19.552 95.9996 18.592C96.5116 17.632 97.2316 16.888 98.1596 16.36C99.0876 15.816 100.176 15.544 101.424 15.544C102.656 15.544 103.68 15.816 104.496 16.36C105.328 16.888 105.952 17.624 106.368 18.568C106.784 19.496 106.992 20.576 106.992 21.808V22.72H98.8076V20.704H103.848L103.44 21.04C103.44 20.128 103.264 19.456 102.912 19.024C102.576 18.576 102.096 18.352 101.472 18.352C100.752 18.352 100.2 18.624 99.8156 19.168C99.4476 19.696 99.2636 20.496 99.2636 21.568V22C99.2636 23.072 99.5276 23.856 100.056 24.352C100.584 24.848 101.344 25.096 102.336 25.096C102.976 25.096 103.576 25.024 104.136 24.88C104.712 24.736 105.256 24.504 105.768 24.184L106.872 26.968C106.264 27.384 105.56 27.704 104.76 27.928C103.96 28.152 103.112 28.264 102.216 28.264ZM113.826 28.264C112.77 28.264 111.842 28.016 111.042 27.52C110.242 27.008 109.61 26.272 109.146 25.312C108.698 24.352 108.474 23.216 108.474 21.904C108.474 20.576 108.698 19.44 109.146 18.496C109.61 17.536 110.242 16.808 111.042 16.312C111.842 15.8 112.77 15.544 113.826 15.544C114.77 15.544 115.618 15.768 116.37 16.216C117.138 16.664 117.642 17.248 117.882 17.968H117.642L117.906 15.808H122.01C121.962 16.352 121.914 16.904 121.866 17.464C121.834 18.024 121.818 18.576 121.818 19.12V28H117.594L117.546 25.936H117.834C117.594 26.64 117.09 27.208 116.322 27.64C115.57 28.056 114.738 28.264 113.826 28.264ZM115.194 25.096C115.914 25.096 116.498 24.848 116.946 24.352C117.394 23.84 117.618 23.024 117.618 21.904C117.618 20.784 117.394 19.976 116.946 19.48C116.498 18.968 115.914 18.712 115.194 18.712C114.474 18.712 113.89 18.968 113.442 19.48C112.994 19.976 112.77 20.784 112.77 21.904C112.77 23.024 112.986 23.84 113.418 24.352C113.866 24.848 114.458 25.096 115.194 25.096ZM125.503 28V18.952H123.223V15.808H126.703L125.503 16.912V15.256C125.503 13.576 125.943 12.32 126.823 11.488C127.703 10.656 129.031 10.24 130.807 10.24C131.207 10.24 131.631 10.264 132.079 10.312C132.527 10.36 132.927 10.456 133.279 10.6V13.864C133.055 13.784 132.799 13.728 132.511 13.696C132.223 13.648 131.943 13.624 131.671 13.624C131.351 13.624 131.039 13.68 130.735 13.792C130.447 13.888 130.207 14.064 130.015 14.32C129.839 14.576 129.751 14.928 129.751 15.376V16.456L129.151 15.808H132.703V18.952H129.775V28H125.503ZM145.216 28V14.656H140.08V11.08H154.792V14.656H149.656V28H145.216ZM160.95 28.264C158.742 28.264 157.022 27.696 155.79 26.56C154.574 25.424 153.966 23.864 153.966 21.88C153.966 20.648 154.222 19.552 154.734 18.592C155.246 17.632 155.966 16.888 156.894 16.36C157.822 15.816 158.91 15.544 160.158 15.544C161.39 15.544 162.414 15.816 163.23 16.36C164.062 16.888 164.686 17.624 165.102 18.568C165.518 19.496 165.726 20.576 165.726 21.808V22.72H157.542V20.704H162.582L162.174 21.04C162.174 20.128 161.998 19.456 161.646 19.024C161.31 18.576 160.83 18.352 160.206 18.352C159.486 18.352 158.934 18.624 158.55 19.168C158.182 19.696 157.998 20.496 157.998 21.568V22C157.998 23.072 158.262 23.856 158.79 24.352C159.318 24.848 160.078 25.096 161.07 25.096C161.71 25.096 162.31 25.024 162.87 24.88C163.446 24.736 163.99 24.504 164.502 24.184L165.606 26.968C164.998 27.384 164.294 27.704 163.494 27.928C162.694 28.152 161.846 28.264 160.95 28.264ZM172.56 28.264C171.504 28.264 170.576 28.016 169.776 27.52C168.976 27.008 168.344 26.272 167.88 25.312C167.432 24.352 167.208 23.216 167.208 21.904C167.208 20.576 167.432 19.44 167.88 18.496C168.344 17.536 168.976 16.808 169.776 16.312C170.576 15.8 171.504 15.544 172.56 15.544C173.504 15.544 174.352 15.768 175.104 16.216C175.872 16.664 176.376 17.248 176.616 17.968H176.376L176.64 15.808H180.744C180.696 16.352 180.648 16.904 180.6 17.464C180.568 18.024 180.552 18.576 180.552 19.12V28H176.328L176.28 25.936H176.568C176.328 26.64 175.824 27.208 175.056 27.64C174.304 28.056 173.472 28.264 172.56 28.264ZM173.928 25.096C174.648 25.096 175.232 24.848 175.68 24.352C176.128 23.84 176.352 23.024 176.352 21.904C176.352 20.784 176.128 19.976 175.68 19.48C175.232 18.968 174.648 18.712 173.928 18.712C173.208 18.712 172.624 18.968 172.176 19.48C171.728 19.976 171.504 20.784 171.504 21.904C171.504 23.024 171.72 23.84 172.152 24.352C172.6 24.848 173.192 25.096 173.928 25.096Z" fill="#333333"/>
</svg>