<svg width="182" height="39" viewBox="0 0 182 39" fill="none" xmlns="http://www.w3.org/2000/svg">
<path fill-rule="evenodd" clip-rule="evenodd" d="M4.54545 7.38232C4.54545 7.24425 4.65738 7.13232 4.79546 7.13232H18.1818C20.6922 7.13232 22.7273 9.16739 22.7273 11.6778V12.8486C22.7273 13.0211 22.8981 13.142 23.0635 13.0931C23.6774 12.9116 24.3273 12.8141 25 12.8141C28.7656 12.8141 31.8182 15.8667 31.8182 19.6323C31.8182 23.3979 28.7656 26.4505 25 26.4505C24.3273 26.4505 23.6774 26.3531 23.0635 26.1716C22.8981 26.1227 22.7273 26.2435 22.7273 26.4161V27.3369C22.7273 27.4749 22.6153 27.5869 22.4773 27.5869H18.1818V11.9278C18.1818 11.7897 18.0699 11.6778 17.9318 11.6778H4.54545V7.38232ZM22.7273 22.0616C22.7273 22.1327 22.7572 22.2008 22.8117 22.2465C23.4039 22.7427 24.167 23.0414 25 23.0414C26.8828 23.0414 28.4091 21.5151 28.4091 19.6323C28.4091 17.7495 26.8828 16.2232 25 16.2232C24.167 16.2232 23.4039 16.522 22.8117 17.0181C22.7572 17.0638 22.7273 17.1319 22.7273 17.203V22.0616Z" fill="white"/>
<path d="M4.54545 11.6778V25.3141C4.54545 26.5693 5.56299 27.5869 6.81818 27.5869H18.1818V31.8823C18.1818 32.0204 18.0699 32.1323 17.9318 32.1323H5.68182C2.54384 32.1323 0 29.5885 0 26.4505V11.9278C0 11.7897 0.111929 11.6778 0.25 11.6778H4.54545Z" fill="white"/>
<path d="M38.9462 28.6323V25.3923L47.5142 14.0883V15.3123H38.9462V11.7123H51.7382V14.9523L43.1462 26.2563V25.0323H52.0982V28.6323H38.9462ZM60.1717 28.8963C57.9637 28.8963 56.2437 28.3283 55.0117 27.1923C53.7957 26.0563 53.1877 24.4963 53.1877 22.5123C53.1877 21.2803 53.4437 20.1843 53.9557 19.2243C54.4677 18.2643 55.1877 17.5203 56.1157 16.9923C57.0437 16.4483 58.1317 16.1763 59.3797 16.1763C60.6117 16.1763 61.6357 16.4483 62.4517 16.9923C63.2837 17.5203 63.9077 18.2563 64.3237 19.2003C64.7397 20.1283 64.9477 21.2083 64.9477 22.4403V23.3523H56.7637V21.3363H61.8037L61.3957 21.6723C61.3957 20.7603 61.2197 20.0883 60.8677 19.6563C60.5317 19.2083 60.0517 18.9843 59.4277 18.9843C58.7077 18.9843 58.1557 19.2563 57.7717 19.8003C57.4037 20.3283 57.2197 21.1283 57.2197 22.2003V22.6323C57.2197 23.7043 57.4837 24.4883 58.0117 24.9843C58.5397 25.4803 59.2997 25.7283 60.2917 25.7283C60.9317 25.7283 61.5317 25.6563 62.0917 25.5123C62.6677 25.3683 63.2117 25.1363 63.7237 24.8163L64.8277 27.6003C64.2197 28.0163 63.5157 28.3363 62.7157 28.5603C61.9157 28.7843 61.0677 28.8963 60.1717 28.8963ZM66.9819 28.6323V19.7523C66.9819 19.2083 66.9659 18.6563 66.9339 18.0963C66.9019 17.5363 66.8539 16.9843 66.7899 16.4403H70.9179L71.1579 18.5523H70.8939C71.2939 17.7843 71.8619 17.2003 72.5979 16.8003C73.3339 16.3843 74.1659 16.1763 75.0939 16.1763C76.5179 16.1763 77.5819 16.6003 78.2859 17.4483C79.0059 18.2803 79.3659 19.5843 79.3659 21.3603V28.6323H75.0939V21.5523C75.0939 20.7683 74.9579 20.2243 74.6859 19.9203C74.4139 19.6003 74.0219 19.4403 73.5099 19.4403C72.8379 19.4403 72.2939 19.6643 71.8779 20.1123C71.4619 20.5443 71.2539 21.1203 71.2539 21.8403V28.6323H66.9819ZM82.1751 28.6323V11.7123H86.6151V24.9603H93.8631V28.6323H82.1751ZM102.125 28.8963C99.9169 28.8963 98.1969 28.3283 96.9649 27.1923C95.7489 26.0563 95.1409 24.4963 95.1409 22.5123C95.1409 21.2803 95.3969 20.1843 95.9089 19.2243C96.4209 18.2643 97.1409 17.5203 98.0689 16.9923C98.9969 16.4483 100.085 16.1763 101.333 16.1763C102.565 16.1763 103.589 16.4483 104.405 16.9923C105.237 17.5203 105.861 18.2563 106.277 19.2003C106.693 20.1283 106.901 21.2083 106.901 22.4403V23.3523H98.7169V21.3363H103.757L103.349 21.6723C103.349 20.7603 103.173 20.0883 102.821 19.6563C102.485 19.2083 102.005 18.9843 101.381 18.9843C100.661 18.9843 100.109 19.2563 99.7249 19.8003C99.3569 20.3283 99.1729 21.1283 99.1729 22.2003V22.6323C99.1729 23.7043 99.4369 24.4883 99.9649 24.9843C100.493 25.4803 101.253 25.7283 102.245 25.7283C102.885 25.7283 103.485 25.6563 104.045 25.5123C104.621 25.3683 105.165 25.1363 105.677 24.8163L106.781 27.6003C106.173 28.0163 105.469 28.3363 104.669 28.5603C103.869 28.7843 103.021 28.8963 102.125 28.8963ZM113.735 28.8963C112.679 28.8963 111.751 28.6483 110.951 28.1523C110.151 27.6403 109.519 26.9043 109.055 25.9443C108.607 24.9843 108.383 23.8483 108.383 22.5363C108.383 21.2083 108.607 20.0723 109.055 19.1283C109.519 18.1683 110.151 17.4403 110.951 16.9443C111.751 16.4323 112.679 16.1763 113.735 16.1763C114.679 16.1763 115.527 16.4003 116.279 16.8483C117.047 17.2963 117.551 17.8803 117.791 18.6003H117.551L117.815 16.4403H121.919C121.871 16.9843 121.823 17.5363 121.775 18.0963C121.743 18.6563 121.727 19.2083 121.727 19.7523V28.6323H117.503L117.455 26.5683H117.743C117.503 27.2723 116.999 27.8403 116.231 28.2723C115.479 28.6883 114.647 28.8963 113.735 28.8963ZM115.103 25.7283C115.823 25.7283 116.407 25.4803 116.855 24.9843C117.303 24.4723 117.527 23.6563 117.527 22.5363C117.527 21.4163 117.303 20.6083 116.855 20.1123C116.407 19.6003 115.823 19.3443 115.103 19.3443C114.383 19.3443 113.799 19.6003 113.351 20.1123C112.903 20.6083 112.679 21.4163 112.679 22.5363C112.679 23.6563 112.895 24.4723 113.327 24.9843C113.775 25.4803 114.367 25.7283 115.103 25.7283ZM125.412 28.6323V19.5843H123.132V16.4403H126.612L125.412 17.5443V15.8883C125.412 14.2083 125.852 12.9523 126.732 12.1203C127.612 11.2883 128.94 10.8723 130.716 10.8723C131.116 10.8723 131.54 10.8963 131.988 10.9443C132.436 10.9923 132.836 11.0883 133.188 11.2323V14.4963C132.964 14.4163 132.708 14.3603 132.42 14.3283C132.132 14.2803 131.852 14.2563 131.58 14.2563C131.26 14.2563 130.948 14.3123 130.644 14.4243C130.356 14.5203 130.116 14.6963 129.924 14.9523C129.748 15.2083 129.66 15.5603 129.66 16.0083V17.0883L129.06 16.4403H132.612V19.5843H129.684V28.6323H125.412ZM145.125 28.6323V15.2883H139.989V11.7123H154.701V15.2883H149.565V28.6323H145.125ZM160.859 28.8963C158.651 28.8963 156.931 28.3283 155.699 27.1923C154.483 26.0563 153.875 24.4963 153.875 22.5123C153.875 21.2803 154.131 20.1843 154.643 19.2243C155.155 18.2643 155.875 17.5203 156.803 16.9923C157.731 16.4483 158.819 16.1763 160.067 16.1763C161.299 16.1763 162.323 16.4483 163.139 16.9923C163.971 17.5203 164.595 18.2563 165.011 19.2003C165.427 20.1283 165.635 21.2083 165.635 22.4403V23.3523H157.451V21.3363H162.491L162.083 21.6723C162.083 20.7603 161.907 20.0883 161.555 19.6563C161.219 19.2083 160.739 18.9843 160.115 18.9843C159.395 18.9843 158.843 19.2563 158.459 19.8003C158.091 20.3283 157.907 21.1283 157.907 22.2003V22.6323C157.907 23.7043 158.171 24.4883 158.699 24.9843C159.227 25.4803 159.987 25.7283 160.979 25.7283C161.619 25.7283 162.219 25.6563 162.779 25.5123C163.355 25.3683 163.899 25.1363 164.411 24.8163L165.515 27.6003C164.907 28.0163 164.203 28.3363 163.403 28.5603C162.603 28.7843 161.755 28.8963 160.859 28.8963ZM172.469 28.8963C171.413 28.8963 170.485 28.6483 169.685 28.1523C168.885 27.6403 168.253 26.9043 167.789 25.9443C167.341 24.9843 167.117 23.8483 167.117 22.5363C167.117 21.2083 167.341 20.0723 167.789 19.1283C168.253 18.1683 168.885 17.4403 169.685 16.9443C170.485 16.4323 171.413 16.1763 172.469 16.1763C173.413 16.1763 174.261 16.4003 175.013 16.8483C175.781 17.2963 176.285 17.8803 176.525 18.6003H176.285L176.549 16.4403H180.653C180.605 16.9843 180.557 17.5363 180.509 18.0963C180.477 18.6563 180.461 19.2083 180.461 19.7523V28.6323H176.237L176.189 26.5683H176.477C176.237 27.2723 175.733 27.8403 174.965 28.2723C174.213 28.6883 173.381 28.8963 172.469 28.8963ZM173.837 25.7283C174.557 25.7283 175.141 25.4803 175.589 24.9843C176.037 24.4723 176.261 23.6563 176.261 22.5363C176.261 21.4163 176.037 20.6083 175.589 20.1123C175.141 19.6003 174.557 19.3443 173.837 19.3443C173.117 19.3443 172.533 19.6003 172.085 20.1123C171.637 20.6083 171.413 21.4163 171.413 22.5363C171.413 23.6563 171.629 24.4723 172.061 24.9843C172.509 25.4803 173.101 25.7283 173.837 25.7283Z" fill="white"/>
</svg>
