<svg width="53" height="16" viewBox="0 0 53 16" fill="none" xmlns="http://www.w3.org/2000/svg">
<path d="M3.07379 3.17195C2.68161 3.64706 2.19547 3.77852 1.61538 3.56632C1.03528 3.35413 0.654741 2.96206 0.473747 2.39013C0.292754 1.8182 0.410431 1.27899 0.826777 0.77252C1.24312 0.266046 1.7364 0.149115 2.30662 0.421726C2.87683 0.694337 3.24529 1.10208 3.41199 1.64496C3.5787 2.18784 3.46596 2.69684 3.07379 3.17195Z" fill="white" fill-opacity="0.7"/>
<path d="M8.88649 2.46774C8.8781 2.87073 8.58215 3.17298 7.99865 3.37447C7.41516 3.57597 6.84635 3.37447 6.29224 2.76999C5.73813 2.1655 5.75282 1.5862 6.33632 1.03209C6.91981 0.477977 7.43824 0.362537 7.89161 0.685769C8.34497 1.009 8.62623 1.28606 8.73537 1.51694C8.84451 1.74782 8.89489 2.06475 8.88649 2.46774Z" fill="white" fill-opacity="0.7"/>
<path d="M13.1227 3.17298C12.7805 3.50996 12.4344 3.51238 12.0846 3.18026C11.7347 2.84814 11.5299 2.46264 11.4703 2.02377C11.4107 1.58489 11.5854 1.17577 11.9943 0.796401C12.4032 0.417034 12.7603 0.447336 13.0655 0.887306C13.3707 1.32728 13.5421 1.73397 13.5797 2.10739C13.6173 2.48081 13.465 2.83601 13.1227 3.17298Z" fill="white" fill-opacity="0.7"/>
<path d="M18.8837 3.03575C18.5135 3.47483 18.0981 3.65347 17.6375 3.57168C17.1769 3.48989 16.8088 3.27035 16.5333 2.91306C16.2578 2.55577 16.1588 2.0263 16.2363 1.32463C16.3138 0.622966 16.7378 0.30657 17.5083 0.375446C18.2789 0.444321 18.7933 0.795154 19.0516 1.42794C19.3099 2.06073 19.2539 2.59667 18.8837 3.03575Z" fill="white" fill-opacity="0.7"/>
<path d="M24.0076 2.80849C23.7852 3.34455 23.3847 3.57755 22.806 3.5075C22.2273 3.43745 21.7826 3.16942 21.472 2.70341C21.1613 2.23741 21.1278 1.71505 21.3714 1.13635C21.6151 0.557654 22.0309 0.338357 22.6187 0.478463C23.2065 0.618569 23.6406 0.907919 23.9208 1.34651C24.201 1.78511 24.2299 2.27243 24.0076 2.80849Z" fill="white" fill-opacity="0.7"/>
<path d="M28.3905 3.17298C28.0482 3.50996 27.7021 3.51238 27.3523 3.18026C27.0024 2.84814 26.7977 2.46264 26.7381 2.02377C26.6784 1.58489 26.8531 1.17577 27.262 0.796401C27.671 0.417034 28.028 0.447336 28.3332 0.887306C28.6384 1.32728 28.8098 1.73397 28.8474 2.10739C28.8851 2.48081 28.7327 2.83601 28.3905 3.17298Z" fill="white" fill-opacity="0.7"/>
<path d="M34.2753 2.80849C34.053 3.34455 33.6524 3.57755 33.0737 3.5075C32.495 3.43745 32.0504 3.16942 31.7397 2.70341C31.429 2.23741 31.3955 1.71505 31.6392 1.13635C31.8828 0.557654 32.2986 0.338357 32.8864 0.478463C33.4743 0.618569 33.9083 0.907919 34.1885 1.34651C34.4687 1.78511 34.4976 2.27243 34.2753 2.80849Z" fill="white" fill-opacity="0.7"/>
<path d="M38.6582 3.17298C38.3159 3.50996 37.9698 3.51238 37.62 3.18026C37.2701 2.84814 37.0654 2.46264 37.0058 2.02377C36.9461 1.58489 37.1208 1.17577 37.5297 0.796401C37.9387 0.417034 38.2957 0.447336 38.6009 0.887306C38.9061 1.32728 39.0775 1.73397 39.1151 2.10739C39.1528 2.48081 39.0004 2.83601 38.6582 3.17298Z" fill="white" fill-opacity="0.7"/>
<path d="M44.7453 2.46774C44.7369 2.87073 44.441 3.17298 43.8575 3.37447C43.274 3.57597 42.7052 3.37447 42.1511 2.76999C41.597 2.1655 41.6116 1.5862 42.1951 1.03209C42.7786 0.477977 43.2971 0.362537 43.7504 0.685769C44.2038 1.009 44.4851 1.28606 44.5942 1.51694C44.7033 1.74782 44.7537 2.06475 44.7453 2.46774Z" fill="white" fill-opacity="0.7"/>
<path d="M48.9816 3.17298C48.6393 3.50996 48.2932 3.51238 47.9434 3.18026C47.5935 2.84814 47.3888 2.46264 47.3291 2.02377C47.2695 1.58489 47.4442 1.17577 47.8531 0.796401C48.2621 0.417034 48.6191 0.447336 48.9243 0.887306C49.2295 1.32728 49.4009 1.73397 49.4385 2.10739C49.4762 2.48081 49.3238 2.83601 48.9816 3.17298Z" fill="white" fill-opacity="0.7"/>
<path d="M2.79678 8.76571C2.57444 9.30176 2.17392 9.53477 1.59522 9.46471C1.01652 9.39466 0.571838 9.12663 0.261168 8.66063C-0.0495024 8.19462 -0.083006 7.67227 0.160657 7.09357C0.40432 6.51487 0.820069 6.29557 1.40791 6.43568C1.99574 6.57578 2.42977 6.86513 2.70998 7.30373C2.99019 7.74232 3.01913 8.22965 2.79678 8.76571Z" fill="white" fill-opacity="0.7"/>
<path d="M7.94344 8.4249C7.93504 8.82789 7.63909 9.13013 7.0556 9.33162C6.4721 9.53312 5.9033 9.33162 5.34919 8.72714C4.79507 8.12265 4.80977 7.54335 5.39326 6.98924C5.97676 6.43513 6.49519 6.31969 6.94855 6.64292C7.40192 6.96615 7.68317 7.24321 7.79232 7.47409C7.90146 7.70497 7.95183 8.02191 7.94344 8.4249Z" fill="white" fill-opacity="0.7"/>
<path d="M13.0181 9.1291C12.6259 9.60421 12.1398 9.73567 11.5597 9.52348C10.9796 9.31128 10.5991 8.91922 10.4181 8.34728C10.2371 7.77535 10.3548 7.23615 10.7711 6.72967C11.1875 6.2232 11.6807 6.10627 12.251 6.37888C12.8212 6.65149 13.1896 7.05924 13.3563 7.60211C13.523 8.14499 13.4103 8.65399 13.0181 9.1291Z" fill="white" fill-opacity="0.7"/>
<path d="M18.8308 8.4249C18.8224 8.82789 18.5265 9.13013 17.943 9.33162C17.3595 9.53312 16.7907 9.33162 16.2366 8.72714C15.6825 8.12265 15.6972 7.54335 16.2807 6.98924C16.8641 6.43513 17.3826 6.31969 17.8359 6.64292C18.2893 6.96615 18.5706 7.24321 18.6797 7.47409C18.7888 7.70497 18.8392 8.02191 18.8308 8.4249Z" fill="white" fill-opacity="0.7"/>
<path d="M23.6285 8.76571C23.4062 9.30176 23.0056 9.53477 22.4269 9.46471C21.8482 9.39466 21.4036 9.12663 21.0929 8.66063C20.7822 8.19462 20.7487 7.67227 20.9924 7.09357C21.236 6.51487 21.6518 6.29557 22.2396 6.43568C22.8275 6.57578 23.2615 6.86513 23.5417 7.30373C23.8219 7.74232 23.8509 8.22965 23.6285 8.76571Z" fill="white" fill-opacity="0.7"/>
<path d="M28.7752 8.4249C28.7668 8.82789 28.4709 9.13013 27.8874 9.33162C27.3039 9.53312 26.7351 9.33162 26.1809 8.72714C25.6268 8.12265 25.6415 7.54335 26.225 6.98924C26.8085 6.43513 27.3269 6.31969 27.7803 6.64292C28.2337 6.96615 28.5149 7.24321 28.6241 7.47409C28.7332 7.70497 28.7836 8.02191 28.7752 8.4249Z" fill="white" fill-opacity="0.7"/>
<path d="M33.449 8.99296C33.0788 9.43204 32.6634 9.61069 32.2028 9.5289C31.7422 9.44711 31.3741 9.22757 31.0986 8.87028C30.8231 8.51299 30.7241 7.98351 30.8016 7.28185C30.8791 6.58018 31.3031 6.26378 32.0736 6.33266C32.8442 6.40154 33.3586 6.75237 33.6169 7.38516C33.8752 8.01795 33.8192 8.55388 33.449 8.99296Z" fill="white" fill-opacity="0.7"/>
<path d="M38.5728 8.76571C38.3505 9.30176 37.95 9.53477 37.3713 9.46471C36.7926 9.39466 36.3479 9.12663 36.0372 8.66063C35.7266 8.19462 35.6931 7.67227 35.9367 7.09357C36.1804 6.51487 36.5961 6.29557 37.184 6.43568C37.7718 6.57578 38.2058 6.86513 38.486 7.30373C38.7663 7.74232 38.7952 8.22965 38.5728 8.76571Z" fill="white" fill-opacity="0.7"/>
<path d="M43.7195 8.4249C43.7111 8.82789 43.4152 9.13013 42.8317 9.33162C42.2482 9.53312 41.6794 9.33162 41.1252 8.72714C40.5711 8.12265 40.5858 7.54335 41.1693 6.98924C41.7528 6.43513 42.2713 6.31969 42.7246 6.64292C43.178 6.96615 43.4592 7.24321 43.5684 7.47409C43.6775 7.70497 43.7279 8.02191 43.7195 8.4249Z" fill="white" fill-opacity="0.7"/>
<path d="M47.9558 9.1302C47.6135 9.46717 47.2674 9.4696 46.9176 9.13748C46.5677 8.80536 46.363 8.41986 46.3033 7.98098C46.2437 7.5421 46.4184 7.13298 46.8273 6.75362C47.2363 6.37425 47.5933 6.40455 47.8985 6.84452C48.2037 7.28449 48.3751 7.69119 48.4127 8.06461C48.4503 8.43803 48.298 8.79323 47.9558 9.1302Z" fill="white" fill-opacity="0.7"/>
<path d="M2.6729 14.9501C2.3027 15.3892 1.88729 15.5678 1.42669 15.4861C0.966089 15.4043 0.598038 15.1847 0.322537 14.8274C0.0470367 14.4701 -0.0519713 13.9407 0.0255132 13.239C0.102998 12.5373 0.52701 12.2209 1.29755 12.2898C2.06809 12.3587 2.5825 12.7095 2.84079 13.3423C3.09907 13.9751 3.04311 14.511 2.6729 14.9501Z" fill="white" fill-opacity="0.7"/>
<path d="M7.79678 14.7229C7.57444 15.2589 7.17392 15.4919 6.59522 15.4219C6.01652 15.3518 5.57184 15.0838 5.26117 14.6178C4.9505 14.1518 4.91699 13.6294 5.16066 13.0507C5.40432 12.472 5.82007 12.2527 6.40791 12.3928C6.99574 12.5329 7.42977 12.8223 7.70998 13.2609C7.99019 13.6995 8.01913 14.1868 7.79678 14.7229Z" fill="white" fill-opacity="0.7"/>
<path d="M12.6172 14.9501C12.247 15.3892 11.8316 15.5678 11.371 15.4861C10.9104 15.4043 10.5424 15.1847 10.2669 14.8274C9.99137 14.4701 9.89236 13.9407 9.96985 13.239C10.0473 12.5373 10.4713 12.2209 11.2419 12.2898C12.0124 12.3587 12.5268 12.7095 12.7851 13.3423C13.0434 13.9751 12.9874 14.511 12.6172 14.9501Z" fill="white" fill-opacity="0.7"/>
<path d="M17.1797 15.0874C16.8374 15.4243 16.4914 15.4268 16.1415 15.0946C15.7916 14.7625 15.5869 14.377 15.5273 13.9381C15.4676 13.4993 15.6423 13.0901 16.0512 12.7108C16.4602 12.3314 16.8173 12.3617 17.1224 12.8017C17.4276 13.2416 17.599 13.6483 17.6366 14.0218C17.6743 14.3952 17.522 14.7504 17.1797 15.0874Z" fill="white" fill-opacity="0.7"/>
<path d="M23.3415 15.0863C22.9493 15.5614 22.4632 15.6929 21.8831 15.4807C21.303 15.2685 20.9225 14.8764 20.7415 14.3045C20.5605 13.7326 20.6782 13.1934 21.0945 12.6869C21.5109 12.1804 22.0041 12.0635 22.5743 12.3361C23.1446 12.6087 23.513 13.0164 23.6797 13.5593C23.8464 14.1022 23.7337 14.6112 23.3415 15.0863Z" fill="white" fill-opacity="0.7"/>
<path d="M29.1542 14.3821C29.1458 14.7851 28.8499 15.0873 28.2664 15.2888C27.6829 15.4903 27.1141 15.2888 26.56 14.6844C26.0059 14.0799 26.0206 13.5006 26.604 12.9465C27.1875 12.3923 27.706 12.2769 28.1593 12.6001C28.6127 12.9234 28.894 13.2004 29.0031 13.4313C29.1122 13.6622 29.1626 13.9791 29.1542 14.3821Z" fill="white" fill-opacity="0.7"/>
<path d="M33.3905 15.0874C33.0482 15.4243 32.7021 15.4268 32.3523 15.0946C32.0024 14.7625 31.7977 14.377 31.7381 13.9381C31.6784 13.4993 31.8531 13.0901 32.262 12.7108C32.671 12.3314 33.028 12.3617 33.3332 12.8017C33.6384 13.2416 33.8098 13.6483 33.8474 14.0218C33.8851 14.3952 33.7327 14.7504 33.3905 15.0874Z" fill="white" fill-opacity="0.7"/>
<path d="M39.4776 14.3821C39.4692 14.7851 39.1733 15.0873 38.5898 15.2888C38.0063 15.4903 37.4375 15.2888 36.8834 14.6844C36.3293 14.0799 36.3439 13.5006 36.9274 12.9465C37.5109 12.3923 38.0294 12.2769 38.4827 12.6001C38.9361 12.9234 39.2174 13.2004 39.3265 13.4313C39.4356 13.6622 39.486 13.9791 39.4776 14.3821Z" fill="white" fill-opacity="0.7"/>
<path d="M44.4776 14.3821C44.4692 14.7851 44.1733 15.0873 43.5898 15.2888C43.0063 15.4903 42.4375 15.2888 41.8834 14.6844C41.3293 14.0799 41.3439 13.5006 41.9274 12.9465C42.5109 12.3923 43.0294 12.2769 43.4827 12.6001C43.9361 12.9234 44.2174 13.2004 44.3265 13.4313C44.4356 13.6622 44.486 13.9791 44.4776 14.3821Z" fill="white" fill-opacity="0.7"/>
<path d="M49.2753 14.7229C49.053 15.2589 48.6524 15.4919 48.0737 15.4219C47.495 15.3518 47.0504 15.0838 46.7397 14.6178C46.429 14.1518 46.3955 13.6294 46.6392 13.0507C46.8828 12.472 47.2986 12.2527 47.8864 12.3928C48.4743 12.5329 48.9083 12.8223 49.1885 13.2609C49.4687 13.6995 49.4976 14.1868 49.2753 14.7229Z" fill="white" fill-opacity="0.7"/>
</svg>
