<svg width="192" height="127" viewBox="0 0 192 127" fill="none" xmlns="http://www.w3.org/2000/svg">
<g clip-path="url(#clip0_2_247)">
<path d="M175.676 -30.4555C192.272 -13.2771 196.214 2.97005 187.501 18.2858C178.787 33.6015 163.125 39.0862 140.512 34.7399C117.899 30.3935 101.095 28.7377 90.1002 29.7726C79.105 30.8074 67.7987 35.1538 56.1812 42.8117C44.5637 50.4695 30.9753 54.8159 15.4162 55.8507C-0.143001 56.8856 -13.7313 52.5392 -25.3489 42.8117C-36.9664 33.0841 -44.5385 20.8729 -48.0652 6.17807C-51.592 -8.51676 -60.6163 -22.5907 -75.1382 -36.0437C-89.6601 -49.4967 -92.7719 -64.0881 -84.4737 -79.8177C-76.1755 -95.5474 -64.8691 -107.759 -50.5547 -116.451C-36.2403 -125.144 -22.5482 -131.043 -9.4785 -134.147C3.5912 -137.252 15.6236 -139.114 26.6188 -139.735C37.6139 -140.356 48.4016 -142.219 58.9818 -145.324C69.5621 -148.428 80.8684 -149.566 92.9008 -148.739C104.933 -147.911 115.825 -143.668 125.575 -136.01C135.326 -128.352 148.81 -121.212 166.029 -114.589C183.248 -107.966 185.011 -96.5823 171.319 -80.4386C157.627 -64.295 159.079 -47.634 175.676 -30.4555Z" fill="#DDD8CD"/>
<path fill-rule="evenodd" clip-rule="evenodd" d="M87.1141 98.3009C87.1141 111.238 80.1343 121.916 71.5438 121.916C63.0874 121.916 56.1077 111.238 56.1077 98.3009C56.1077 86.8926 62.2858 72.9547 67.7761 62.4899C69.5356 59.1363 73.4917 59.1883 75.2567 62.5376C80.7973 73.0519 87.1141 86.3475 87.1141 98.3009Z" fill="#BAD0C7"/>
<path fill-rule="evenodd" clip-rule="evenodd" d="M83.9685 125.947C88.5791 121.042 91.5982 112.927 91.5982 103.836C91.5982 98.374 90.4431 92.6674 88.6513 87.0167C95.3971 82.3537 104.255 79.5473 111.699 77.7616C114.866 77.0018 117.584 80.5678 116.868 84.4692C114.619 96.7166 111.296 111.589 104.364 119.892C98.3605 127.084 90.0909 129.282 83.9685 125.947Z" fill="#BAD0C7"/>
<path fill-rule="evenodd" clip-rule="evenodd" d="M59.0152 125.947C54.4045 121.042 51.3855 112.927 51.3855 103.836C51.3855 98.374 52.5406 92.6674 54.3324 87.0167C47.5865 82.3537 38.7286 79.5473 31.2845 77.7616C28.1173 77.0018 25.3993 80.5678 26.1157 84.4692C28.3646 96.7166 31.6872 111.589 38.6195 119.892C44.6232 127.084 52.8927 129.282 59.0152 125.947Z" fill="#BAD0C7"/>
<rect x="154.5" y="-33.5" width="414" height="200" stroke="#70ACA0" stroke-opacity="0.5" stroke-width="5"/>
<path d="M12.0738 13.1719C11.6816 13.6471 11.1955 13.7785 10.6154 13.5663C10.0353 13.3541 9.65474 12.9621 9.47375 12.3901C9.29275 11.8182 9.41043 11.279 9.82678 10.7725C10.2431 10.266 10.7364 10.1491 11.3066 10.4217C11.8768 10.6943 12.2453 11.1021 12.412 11.645C12.5787 12.1878 12.466 12.6968 12.0738 13.1719Z" fill="white" fill-opacity="0.7"/>
<path d="M17.8865 12.4677C17.8781 12.8707 17.5821 13.173 16.9987 13.3745C16.4152 13.576 15.8464 13.3745 15.2922 12.77C14.7381 12.1655 14.7528 11.5862 15.3363 11.0321C15.9198 10.478 16.4382 10.3625 16.8916 10.6858C17.345 11.009 17.6262 11.2861 17.7354 11.5169C17.8445 11.7478 17.8949 12.0648 17.8865 12.4677Z" fill="white" fill-opacity="0.7"/>
<path d="M22.1227 13.173C21.7805 13.51 21.4344 13.5124 21.0846 13.1803C20.7347 12.8481 20.5299 12.4626 20.4703 12.0238C20.4107 11.5849 20.5854 11.1758 20.9943 10.7964C21.4032 10.417 21.7603 10.4473 22.0655 10.8873C22.3707 11.3273 22.5421 11.734 22.5797 12.1074C22.6173 12.4808 22.465 12.836 22.1227 13.173Z" fill="white" fill-opacity="0.7"/>
<path d="M27.8837 13.0357C27.5135 13.4748 27.0981 13.6535 26.6375 13.5717C26.1769 13.4899 25.8088 13.2704 25.5333 12.9131C25.2578 12.5558 25.1588 12.0263 25.2363 11.3246C25.3138 10.623 25.7378 10.3066 26.5083 10.3754C27.2789 10.4443 27.7933 10.7952 28.0516 11.4279C28.3099 12.0607 28.2539 12.5967 27.8837 13.0357Z" fill="white" fill-opacity="0.7"/>
<path d="M33.0076 12.8085C32.7852 13.3445 32.3847 13.5776 31.806 13.5075C31.2273 13.4374 30.7826 13.1694 30.472 12.7034C30.1613 12.2374 30.1278 11.7151 30.3714 11.1364C30.6151 10.5577 31.0309 10.3384 31.6187 10.4785C32.2065 10.6186 32.6406 10.9079 32.9208 11.3465C33.201 11.7851 33.2299 12.2724 33.0076 12.8085Z" fill="white" fill-opacity="0.7"/>
<path d="M37.3905 13.173C37.0482 13.51 36.7021 13.5124 36.3523 13.1803C36.0024 12.8481 35.7977 12.4626 35.7381 12.0238C35.6784 11.5849 35.8531 11.1758 36.262 10.7964C36.671 10.417 37.028 10.4473 37.3332 10.8873C37.6384 11.3273 37.8098 11.734 37.8474 12.1074C37.8851 12.4808 37.7327 12.836 37.3905 13.173Z" fill="white" fill-opacity="0.7"/>
<path d="M43.2753 12.8085C43.053 13.3445 42.6524 13.5776 42.0737 13.5075C41.495 13.4374 41.0504 13.1694 40.7397 12.7034C40.429 12.2374 40.3955 11.7151 40.6392 11.1364C40.8828 10.5577 41.2986 10.3384 41.8864 10.4785C42.4743 10.6186 42.9083 10.9079 43.1885 11.3465C43.4687 11.7851 43.4976 12.2724 43.2753 12.8085Z" fill="white" fill-opacity="0.7"/>
<path d="M47.6582 13.173C47.3159 13.51 46.9698 13.5124 46.62 13.1803C46.2701 12.8481 46.0654 12.4626 46.0058 12.0238C45.9461 11.5849 46.1208 11.1758 46.5297 10.7964C46.9387 10.417 47.2957 10.4473 47.6009 10.8873C47.9061 11.3273 48.0775 11.734 48.1151 12.1074C48.1528 12.4808 48.0004 12.836 47.6582 13.173Z" fill="white" fill-opacity="0.7"/>
<path d="M11.9991 18.4249C11.9907 18.8279 11.6948 19.1301 11.1113 19.3316C10.5278 19.5331 9.95896 19.3316 9.40485 18.7271C8.85074 18.1227 8.86543 17.5434 9.44893 16.9892C10.0324 16.4351 10.5509 16.3197 11.0042 16.6429C11.4576 16.9662 11.7388 17.2432 11.848 17.4741C11.9571 17.705 12.0075 18.0219 11.9991 18.4249Z" fill="white" fill-opacity="0.7"/>
<path d="M16.2354 19.1302C15.8931 19.4672 15.547 19.4696 15.1972 19.1375C14.8473 18.8054 14.6426 18.4199 14.5829 17.981C14.5233 17.5421 14.698 17.133 15.1069 16.7536C15.5159 16.3742 15.8729 16.4046 16.1781 16.8445C16.4833 17.2845 16.6547 17.6912 16.6923 18.0646C16.7299 18.438 16.5776 18.7932 16.2354 19.1302Z" fill="white" fill-opacity="0.7"/>
<path d="M22.1202 18.7657C21.8978 19.3018 21.4973 19.5348 20.9186 19.4647C20.3399 19.3947 19.8952 19.1266 19.5846 18.6606C19.2739 18.1946 19.2404 17.6723 19.4841 17.0936C19.7277 16.5149 20.1435 16.2956 20.7313 16.4357C21.3191 16.5758 21.7532 16.8651 22.0334 17.3037C22.3136 17.7423 22.3425 18.2296 22.1202 18.7657Z" fill="white" fill-opacity="0.7"/>
<path d="M27.2668 18.4249C27.2584 18.8279 26.9625 19.1301 26.379 19.3316C25.7955 19.5331 25.2267 19.3316 24.6726 18.7271C24.1185 18.1227 24.1332 17.5434 24.7167 16.9892C25.3002 16.4351 25.8186 16.3197 26.2719 16.6429C26.7253 16.9662 27.0066 17.2432 27.1157 17.4741C27.2249 17.705 27.2752 18.0219 27.2668 18.4249Z" fill="white" fill-opacity="0.7"/>
<path d="M32.3415 19.1291C31.9493 19.6042 31.4632 19.7357 30.8831 19.5235C30.303 19.3113 29.9225 18.9192 29.7415 18.3473C29.5605 17.7754 29.6782 17.2361 30.0945 16.7297C30.5109 16.2232 31.0041 16.1063 31.5743 16.3789C32.1446 16.6515 32.513 17.0592 32.6797 17.6021C32.8464 18.145 32.7337 18.654 32.3415 19.1291Z" fill="white" fill-opacity="0.7"/>
<path d="M38.1542 18.4249C38.1458 18.8279 37.8499 19.1301 37.2664 19.3316C36.6829 19.5331 36.1141 19.3316 35.56 18.7271C35.0059 18.1227 35.0206 17.5434 35.604 16.9892C36.1875 16.4351 36.706 16.3197 37.1593 16.6429C37.6127 16.9662 37.894 17.2432 38.0031 17.4741C38.1122 17.705 38.1626 18.0219 38.1542 18.4249Z" fill="white" fill-opacity="0.7"/>
<path d="M42.9519 18.7657C42.7296 19.3018 42.329 19.5348 41.7503 19.4647C41.1716 19.3947 40.727 19.1266 40.4163 18.6606C40.1056 18.1946 40.0721 17.6723 40.3158 17.0936C40.5594 16.5149 40.9752 16.2956 41.563 16.4357C42.1509 16.5758 42.5849 16.8651 42.8651 17.3037C43.1453 17.7423 43.1742 18.2296 42.9519 18.7657Z" fill="white" fill-opacity="0.7"/>
<path d="M48.0986 18.4249C48.0902 18.8279 47.7942 19.1301 47.2107 19.3316C46.6272 19.5331 46.0584 19.3316 45.5043 18.7271C44.9502 18.1227 44.9649 17.5434 45.5484 16.9892C46.1319 16.4351 46.6503 16.3197 47.1037 16.6429C47.557 16.9662 47.8383 17.2432 47.9474 17.4741C48.0566 17.705 48.107 18.0219 48.0986 18.4249Z" fill="white" fill-opacity="0.7"/>
<path d="M11.6729 24.685C11.3027 25.1241 10.8873 25.3027 10.4267 25.2209C9.96609 25.1391 9.59804 24.9196 9.32254 24.5623C9.04704 24.205 8.94803 23.6755 9.02551 22.9739C9.103 22.2722 9.52701 21.9558 10.2976 22.0247C11.0681 22.0936 11.5825 22.4444 11.8408 23.0772C12.0991 23.71 12.0431 24.2459 11.6729 24.685Z" fill="white" fill-opacity="0.7"/>
<path d="M16.7968 24.4577C16.5744 24.9938 16.1739 25.2268 15.5952 25.1567C15.0165 25.0867 14.5718 24.8186 14.2612 24.3526C13.9505 23.8866 13.917 23.3643 14.1607 22.7856C14.4043 22.2069 14.8201 21.9876 15.4079 22.1277C15.9957 22.2678 16.4298 22.5572 16.71 22.9957C16.9902 23.4343 17.0191 23.9217 16.7968 24.4577Z" fill="white" fill-opacity="0.7"/>
<path d="M21.9434 24.1169C21.935 24.5199 21.6391 24.8221 21.0556 25.0236C20.4721 25.2251 19.9033 25.0236 19.3492 24.4192C18.7951 23.8147 18.8098 23.2354 19.3933 22.6813C19.9768 22.1271 20.4952 22.0117 20.9486 22.3349C21.4019 22.6582 21.6832 22.9352 21.7923 23.1661C21.9015 23.397 21.9518 23.7139 21.9434 24.1169Z" fill="white" fill-opacity="0.7"/>
<path d="M26.1797 24.8222C25.8374 25.1592 25.4914 25.1616 25.1415 24.8295C24.7916 24.4974 24.5869 24.1119 24.5273 23.673C24.4676 23.2341 24.6423 22.825 25.0512 22.4456C25.4602 22.0663 25.8173 22.0966 26.1224 22.5365C26.4276 22.9765 26.599 23.3832 26.6366 23.7566C26.6743 24.13 26.522 24.4852 26.1797 24.8222Z" fill="white" fill-opacity="0.7"/>
<path d="M31.9406 24.685C31.5704 25.1241 31.155 25.3027 30.6944 25.2209C30.2338 25.1391 29.8658 24.9196 29.5903 24.5623C29.3148 24.205 29.2158 23.6755 29.2932 22.9739C29.3707 22.2722 29.7947 21.9558 30.5653 22.0247C31.3358 22.0936 31.8502 22.4444 32.1085 23.0772C32.3668 23.71 32.3108 24.2459 31.9406 24.685Z" fill="white" fill-opacity="0.7"/>
<path d="M37.0645 24.4577C36.8422 24.9938 36.4417 25.2268 35.863 25.1567C35.2843 25.0867 34.8396 24.8186 34.5289 24.3526C34.2182 23.8866 34.1847 23.3643 34.4284 22.7856C34.6721 22.2069 35.0878 21.9876 35.6756 22.1277C36.2635 22.2678 36.6975 22.5572 36.9777 22.9957C37.2579 23.4343 37.2869 23.9217 37.0645 24.4577Z" fill="white" fill-opacity="0.7"/>
<path d="M41.885 24.685C41.5148 25.1241 41.0994 25.3027 40.6388 25.2209C40.1782 25.1391 39.8101 24.9196 39.5346 24.5623C39.2591 24.205 39.1601 23.6755 39.2376 22.9739C39.3151 22.2722 39.7391 21.9558 40.5096 22.0247C41.2802 22.0936 41.7946 22.4444 42.0529 23.0772C42.3111 23.71 42.2552 24.2459 41.885 24.685Z" fill="white" fill-opacity="0.7"/>
<path d="M46.4474 24.8222C46.1052 25.1592 45.7591 25.1616 45.4092 24.8295C45.0594 24.4974 44.8546 24.1119 44.795 23.673C44.7354 23.2341 44.91 22.825 45.319 22.4456C45.7279 22.0663 46.085 22.0966 46.3902 22.5365C46.6953 22.9765 46.8668 23.3832 46.9044 23.7566C46.942 24.13 46.7897 24.4852 46.4474 24.8222Z" fill="white" fill-opacity="0.7"/>
<path d="M12.0738 30.5131C11.6816 30.9882 11.1955 31.1197 10.6154 30.9075C10.0353 30.6953 9.65474 30.3033 9.47375 29.7313C9.29275 29.1594 9.41043 28.6202 9.82678 28.1137C10.2431 27.6072 10.7364 27.4903 11.3066 27.7629C11.8768 28.0355 12.2453 28.4433 12.412 28.9861C12.5787 29.529 12.466 30.038 12.0738 30.5131Z" fill="white" fill-opacity="0.7"/>
<path d="M17.8865 29.809C17.8781 30.212 17.5821 30.5142 16.9987 30.7157C16.4152 30.9172 15.8464 30.7157 15.2922 30.1112C14.7381 29.5067 14.7528 28.9274 15.3363 28.3733C15.9198 27.8192 16.4382 27.7038 16.8916 28.027C17.345 28.3502 17.6262 28.6273 17.7354 28.8582C17.8445 29.0891 17.8949 29.406 17.8865 29.809Z" fill="white" fill-opacity="0.7"/>
<path d="M22.1227 30.5142C21.7805 30.8512 21.4344 30.8536 21.0846 30.5215C20.7347 30.1894 20.5299 29.8039 20.4703 29.365C20.4107 28.9261 20.5854 28.517 20.9943 28.1376C21.4032 27.7583 21.7603 27.7886 22.0655 28.2286C22.3707 28.6685 22.5421 29.0752 22.5797 29.4486C22.6173 29.8221 22.465 30.1773 22.1227 30.5142Z" fill="white" fill-opacity="0.7"/>
<path d="M28.2099 29.809C28.2015 30.212 27.9055 30.5142 27.322 30.7157C26.7386 30.9172 26.1697 30.7157 25.6156 30.1112C25.0615 29.5067 25.0762 28.9274 25.6597 28.3733C26.2432 27.8192 26.7616 27.7038 27.215 28.027C27.6684 28.3502 27.9496 28.6273 28.0588 28.8582C28.1679 29.0891 28.2183 29.406 28.2099 29.809Z" fill="white" fill-opacity="0.7"/>
<path d="M33.2099 29.809C33.2015 30.212 32.9055 30.5142 32.322 30.7157C31.7386 30.9172 31.1697 30.7157 30.6156 30.1112C30.0615 29.5067 30.0762 28.9274 30.6597 28.3733C31.2432 27.8192 31.7616 27.7038 32.215 28.027C32.6684 28.3502 32.9496 28.6273 33.0588 28.8582C33.1679 29.0891 33.2183 29.406 33.2099 29.809Z" fill="white" fill-opacity="0.7"/>
<path d="M38.0076 30.1497C37.7852 30.6858 37.3847 30.9188 36.806 30.8487C36.2273 30.7787 35.7826 30.5107 35.472 30.0447C35.1613 29.5787 35.1278 29.0563 35.3714 28.4776C35.6151 27.8989 36.0309 27.6796 36.6187 27.8197C37.2065 27.9598 37.6406 28.2492 37.9208 28.6878C38.201 29.1264 38.2299 29.6137 38.0076 30.1497Z" fill="white" fill-opacity="0.7"/>
<rect x="170.5" y="-12.5" width="414" height="181" stroke="#F5F3F0" stroke-width="5"/>
</g>
<defs>
<clipPath id="clip0_2_247">
<rect width="192" height="127" fill="white"/>
</clipPath>
</defs>
</svg>
