<svg width="203" height="127" viewBox="0 0 203 127" fill="none" xmlns="http://www.w3.org/2000/svg">
<g clip-path="url(#clip0_2_300)">
<path d="M299.336 102.543C289.371 129.318 268.197 141.457 235.812 138.961C203.427 136.465 180.214 142.819 166.174 158.021C152.133 173.224 132.883 182.414 108.425 185.591C83.9663 188.767 76.3797 173.451 85.6648 139.642C94.9499 105.833 80.4561 84.5034 42.1833 75.654C3.91048 66.8046 -8.3187 50.9211 5.49575 28.0034C19.3102 5.08574 36.6349 -11.2516 57.4698 -21.0086C78.3047 -30.7657 98.1204 -35.7576 116.917 -35.9845C135.714 -36.2114 153.152 -33.9424 169.231 -29.1773C185.31 -24.4122 202.521 -17.9454 220.865 -9.7767C239.209 -1.60803 259.364 12.4602 281.332 32.4281C303.299 52.396 309.3 75.7675 299.336 102.543Z" fill="#DDD8CD"/>
<rect x="-376.5" y="-33.5" width="414" height="200" stroke="#70ACA0" stroke-opacity="0.5" stroke-width="5"/>
<path d="M121.528 45.2179C121.543 45.2248 121.557 45.2311 121.569 45.237C121.56 45.2563 121.549 45.2783 121.537 45.303C121.484 45.4134 121.405 45.5762 121.299 45.7856C121.088 46.2043 120.772 46.8089 120.356 47.5516C119.524 49.0371 118.289 51.0742 116.679 53.2801C113.458 57.6945 108.744 62.7734 102.76 65.4696C96.7791 68.1646 90.6507 67.9736 86.0116 67.1054C83.6927 66.6714 81.7482 66.0687 80.3838 65.5745C79.7016 65.3275 79.1647 65.1076 78.7986 64.9497C78.6155 64.8708 78.4752 64.8073 78.3809 64.7637C78.3661 64.7569 78.3525 64.7505 78.34 64.7447C78.3492 64.7253 78.3597 64.7033 78.3716 64.6787C78.4247 64.5683 78.5043 64.4054 78.6099 64.1961C78.8212 63.7774 79.1367 63.1727 79.5528 62.43C80.3852 60.9445 81.6201 58.9074 83.2299 56.7015C86.4512 52.2871 91.1654 47.2082 97.1491 44.512C103.13 41.817 109.258 42.008 113.898 42.8762C116.216 43.3102 118.161 43.913 119.525 44.4071C120.207 44.6542 120.744 44.874 121.111 45.0319C121.294 45.1109 121.434 45.1743 121.528 45.2179Z" fill="#ADCAC1" stroke="#ADCAC1" stroke-width="0.233883"/>
<path d="M142.215 56.316C142.084 56.3052 141.984 56.2942 141.917 56.286C141.917 56.2831 141.918 56.2802 141.918 56.2772C141.93 56.2031 141.95 56.0927 141.978 55.9487C142.034 55.6607 142.126 55.2384 142.27 54.7034C142.556 53.6334 143.047 52.1127 143.863 50.3135C145.495 46.7153 148.427 42.0035 153.628 37.5535C158.83 33.1028 164.483 30.4709 168.837 28.9517C171.013 28.1922 172.864 27.7112 174.171 27.4201C174.824 27.2746 175.341 27.1766 175.694 27.115C175.848 27.0882 175.971 27.0682 176.06 27.0543C176.025 27.1509 175.973 27.2884 175.906 27.4634C175.761 27.8366 175.544 28.3801 175.25 29.0605C174.662 30.4213 173.77 32.329 172.552 34.5153C170.115 38.8892 166.378 44.3721 161.176 48.8229C155.976 53.2719 151.131 55.1326 147.589 55.8822C145.818 56.2571 144.372 56.3542 143.37 56.3578C142.869 56.3596 142.479 56.338 142.215 56.316Z" fill="#ADCAC1" stroke="#ADCAC1" stroke-width="0.233883"/>
<path d="M152.04 18.2105C151.974 18.0946 151.926 18.0042 151.894 17.9429C151.896 17.9412 151.898 17.9395 151.9 17.9378C151.958 17.8905 152.046 17.821 152.162 17.733C152.393 17.5569 152.739 17.3066 153.191 17.0109C154.095 16.4197 155.426 15.6475 157.134 14.9261C160.548 13.4835 165.465 12.2441 171.471 13.061C177.478 13.8782 182.473 16.4665 185.967 18.8521C187.714 20.0447 189.085 21.1861 190.019 22.029C190.486 22.4504 190.843 22.7972 191.084 23.0383C191.19 23.144 191.273 23.2293 191.332 23.2918C191.245 23.3373 191.121 23.4013 190.962 23.4808C190.622 23.6509 190.123 23.8924 189.485 24.1771C188.21 24.7467 186.385 25.4892 184.183 26.1807C179.778 27.564 173.875 28.7409 167.868 27.9238C161.864 27.107 157.857 24.5835 155.352 22.2677C154.099 21.1095 153.222 20.0028 152.658 19.1866C152.376 18.7786 152.173 18.4432 152.04 18.2105Z" fill="#ADCAC1" stroke="#ADCAC1" stroke-width="0.233883"/>
<path d="M114.189 27.5905C114.123 27.4747 114.074 27.3843 114.042 27.323C114.044 27.3213 114.046 27.3196 114.049 27.3179C114.107 27.2706 114.194 27.2011 114.31 27.1131C114.542 26.937 114.887 26.6866 115.339 26.391C116.243 25.7997 117.575 25.0275 119.282 24.3062C122.696 22.8635 127.613 21.6241 133.619 22.4411C139.626 23.2582 144.621 25.8465 148.115 28.2322C149.862 29.4248 151.233 30.5662 152.167 31.4091C152.634 31.8305 152.992 32.1773 153.233 32.4184C153.338 32.524 153.421 32.6094 153.481 32.6719C153.394 32.7174 153.27 32.7813 153.111 32.8609C152.771 33.031 152.271 33.2724 151.634 33.5572C150.359 34.1267 148.533 34.8693 146.331 35.5607C141.927 36.944 136.024 38.1209 130.017 37.3038C124.012 36.487 120.005 33.9635 117.501 31.6477C116.248 30.4895 115.37 29.3828 114.807 28.5667C114.525 28.1587 114.321 27.8233 114.189 27.5905Z" fill="#ADCAC1" stroke="#ADCAC1" stroke-width="0.233883"/>
<path d="M118.636 46.5135C141.378 35.6398 194.893 16.7075 227.02 27.9681" stroke="#ADCAC1" stroke-width="3"/>
<rect x="-360.5" y="-12.5" width="414" height="181" stroke="#F5F3F0" stroke-width="5"/>
</g>
<defs>
<clipPath id="clip0_2_300">
<rect width="203" height="127" fill="white"/>
</clipPath>
</defs>
</svg>
