<svg width="165" height="71" viewBox="0 0 165 71" fill="none" xmlns="http://www.w3.org/2000/svg">
<g clip-path="url(#clip0_2_461)">
<path d="M113.184 13.1518C135.756 -3.2466 159.682 -4.08579 184.963 10.6342C210.244 25.3542 223.285 47.0772 224.088 75.8032C224.891 104.529 223.871 133.443 221.028 162.545C218.186 191.646 201.724 206.784 171.642 207.959C141.56 209.134 115.356 211.535 93.0278 215.164C70.6999 218.792 54.0251 210.769 43.0033 191.095C31.9815 171.421 18.689 152.578 3.12564 134.567C-12.4377 116.555 -14.3177 97.1835 -2.51433 76.4517C9.28904 55.7198 25.88 44.0865 47.2585 41.5516C68.637 39.0168 90.6122 29.5502 113.184 13.1518Z" fill="#EBE8E1"/>
</g>
<defs>
<clipPath id="clip0_2_461">
<rect width="165" height="71" fill="white"/>
</clipPath>
</defs>
</svg>
